<?xml version="1.0" encoding="utf-8"?>
<!-- Generator: Adobe Illustrator 16.0.0, SVG Export Plug-In . SVG Version: 6.00 Build 0)  -->
<!DOCTYPE svg PUBLIC "-//W3C//DTD SVG 1.1//EN" "http://www.w3.org/Graphics/SVG/1.1/DTD/svg11.dtd">
<svg version="1.1" xmlns="http://www.w3.org/2000/svg" xmlns:xlink="http://www.w3.org/1999/xlink" x="0px" y="0px" width="578px"
	 height="471.332px" viewBox="0 0 578 471.332" enable-background="new 0 0 578 471.332" xml:space="preserve">
<g id="Camada_3">
</g>
<g id="original">
	<g>
		<path fill="#4E6F2E" d="M58.594,397.069c0.37,0.163,0.745,0.452,1.109,0.439c0.21-0.007,0.403-0.501,0.604-0.776
			c-0.365-0.157-0.73-0.316-1.111-0.482C58.996,396.523,58.795,396.798,58.594,397.069z"/>
		<path fill="#4E6F2E" d="M564.518,348.914c2.227-3.072-1.432-5.091-3.166-6.974c-14.941-16.218-28.891-33.193-42.221-50.794
			c-8.688-11.475-15.748-25.864-32.791-27.971c-0.404-0.05-0.746-0.545-1.133-0.808c-14.391-9.746-29.959-13.936-47.24-9.995
			c-3.684,0.84-6.473-0.053-5.84-4.322c0.688-4.639-1.547-8.204-3.182-12.054c-1.564-3.69-3.523-7.323-2.367-11.514
			c1.945-7.049-1.4-14.02-0.174-21.074c0.354-2.044-1.193-4.324-2.949-4.248c-8.129,0.347-15.945-4.682-24.111-1.537
			c-3.139,1.21-5.846,1.904-9.379,1.09c-6.723-1.549-11.404,3.767-7.932,9.423c3.613,5.882,1.688,12.18,4.508,18.416
			c-6.93-1.009-12.904-2.205-18.936-2.697c-19.514-1.592-39.078-0.757-53.236,14.642c-10.031,10.91-24.403,15.514-33.374,27.625
			c-1.399-2.49-0.521-3.806-0.069-5.048c10.331-28.457,28.182-51.63,51.271-70.688c8.848-7.302,20.938-9.64,31.539-7.668
			c14.303,2.662,27.988,2.587,41.992-0.043c1.98-0.373,3.893-0.971,5.75,1.143c7.785,8.854,17.766,9.763,28.352,6.823
			c17.998-4.997,23.285-14.072,14.578-29.731c-2.012-3.616-0.057-5.462,1.846-7.893c8.396-10.738,5.783-21.084-6.834-26.534
			c-5.121-2.213-10.74-3.347-15.709-5.821c-3.369-1.679-8.861-0.692-9.979-4.903c-1.773-6.688-6.307-10.217-11.67-13.36
			c-1.635-0.958-2.744-1.814-3.152-4.118c-3.314-18.675-22.49-26.656-37.967-15.739c-3.834,2.706-6.543,3.083-8.932-1.184
			c-3.936-7.031-10.322-11.19-17.574-13.419c-6.053-1.86-10.133-4.317-12.113-10.82c-1.367-4.49-5.764-7.284-10.051-9.515
			c-7.754-4.035-16.195-4.681-24.688-5.174c-2.029-0.118-4.186,0.589-5.937-1.317c-11.729-12.771-26.35-10.075-40.791-7.229
			c-6.223,1.227-11.213,5.079-14.308,10.668c-1.456,2.628-2.379,2.657-5.295,2.053c-10.001-2.071-20.282-3.033-27.44-11.701
			c-0.546-0.662-1.62-0.958-2.505-1.257c-13.373-4.527-26.922-4.78-40.284-0.479c-8.128,2.619-13.68,8.24-14.593,17.33
			c-0.186,1.845-0.011,3.495-2.343,4.555c-5.144,2.339-9.252,6.313-16.015,5.295c-6.089-0.917-9.305,3.658-8.659,9.847
			c0.564,5.406-2.787,8.604-7.19,8.93c-8.075,0.6-15.255,4.621-23.313,5.083c-2.407,0.138-5.552,1.277-6.926,3.063
			c-4.72,6.129-10.645,9.767-17.95,12.154c-4.379,1.432-5.409,6.403-1.865,9.094c6.098,4.631,3.981,10.962,5.968,16.835
			c-2.608,0.136-4.486,0.127-6.333,0.359c-2.1,0.264-4.229,0.557-6.247,1.165c-6.303,1.895-8.133,5.852-5.646,11.849
			c2.802,6.756,0.445,12.1-6.584,14.732c-5.435,2.035-8.599,5.957-8.594,11.669c0.003,5.406,3.908,8.25,8.534,10.031
			c1.944,0.75,4.038,1.553,6.067,1.565c9.224,0.053,16.523,3.328,20.799,12.214c-2.596,2.203-5.816,4.564-8.577,7.376
			c-3.203,3.263-3.575,7.042-0.566,10.806c8.551,10.693,33.089,11.143,43.548,2.298c5.485-4.639,14.662-3.026,20.982-7.737
			c0.262-0.195,1.821,1.255,2.712,2.015c5.505,4.691,11.089,4.281,15.559-0.952c3.255-3.813,6.244-3.725,10.439-2.36
			c19.13,6.227,34.418,18.192,48.647,31.861c3.122,3,5.36,6.319,6.768,10.502c3.553,10.552,9.872,19.076,19.116,25.58
			c7.609,5.355,10.667,13.391,12.026,23.157c-6.382-2.588-11.934-1.94-17.318-0.112c-4.429,1.504-7.017,0.146-9.772-3.59
			c-13.115-17.782-47.231-27.051-67.566-18.208c-17.667,7.683-24.041,22.716-24.629,40.836c-0.182,5.604-1.029,10.175-7.568,11.599
			c-0.992-3.616-0.62-8.166-3.571-9.957c-6.503-3.946-2.431-8.175,0.185-10.215c5.602-4.362,4.167-8.777,2.122-13.767
			c-2.565-6.26-0.671-12.553-0.114-18.831c0.163-1.84,1.226-3.237,3.027-3.44c6.164-0.693,6.172-5.987,5.631-9.555
			c-0.607-4.002-0.719-7.803-0.638-11.797c0.145-7.117-6.012-10.831-12.643-7.984c-1.641,0.705-3.005,2.615-5.106,1.374
			c-9.255-5.469-18.797,1.476-28.175-0.644c-1.949-0.439-3.434,1.563-4.051,3.404c-3.187,9.504-9.389,16.651-17.25,22.565
			c-0.541,0.406-0.874,1.104-1.26,1.696c-5.463,8.376-11.307,16.412-16.252,25.239c-4.252,7.591-4.36,17.227-11.413,23.324
			c-1.036,0.896-1.24,3.061-1.353,4.674c-0.815,11.622-1.02,23.179,6.036,33.374c3.751,5.421,5.456,11.448,5.439,17.965
			c-0.02,7.587,3.828,13.308,9.652,17.191c24.865,16.582,57.809,2.478,60.307-21.626c0.494-4.762,0.107-9.278-3.269-11.598
			c-6.515-4.472-11.189-10.742-17.119-16.396c9.253,0.057,18.522-2.473,27.592,1.122c2.276,0.902,4.771,1.068,6.901-0.047
			c4.22-2.209,8.686-1.76,13.127-1.768c13.912-0.021,27.824-0.088,41.734,0.062c4.134,0.044,8.885-1.74,11.658,3.693
			c0.881,1.725,3.516,0.232,5.328,0.366c5.902,0.437,10.344-4.206,16.243-4.191c51.638,0.129,103.277,0.076,154.916,0.056
			c2.381-0.002,4.02,0.357,5.875,2.578c7.828,9.379,17.885,8.189,25.055,1.968c4.873-4.227,9.082-4.222,14.217-4.463
			c5.041-0.238,9.643,1.741,14.449,2.658c3.08,0.589,5.928,0.535,9.018-0.253c14.438-3.68,28.918-4.573,43.313,0.358
			c2.057,0.704,4.848,1.585,6.141,0.316c4.967-4.867,10.984-2.42,16.533-3.2c7.621-1.071,12.664,0.333,14.318,9.347
			c1.139,6.198,7.32,10.579,7.467,17.872c0.176,8.676,4.145,16.284,9.996,22.658c2.318,2.527,3.771,5.304,4.904,8.434
			c2.24,6.189,4.572,12.347,6.973,18.475c0.559,1.421,0.969,3.225,3.316,2.892c2-0.283,2.064-1.616,1.967-3.063
			c-0.918-13.509,1.404-27.048-0.74-40.572c-2.086-13.16-6.709-25.622-10.082-38.712c4.852-0.04,6.938,3.815,9.84,6.268
			c3.75,3.173,6.453,7.628,11.256,9.496C558.492,350.546,562.213,352.095,564.518,348.914z M304.365,181.259
			c3.404,0,6.809,0,10.215,0l-12.867,3.062C301.369,182.236,302.299,181.257,304.365,181.259z M85.605,364.021
			c1.256-2.248,2.72-5.19,5.787-3.556c2.669,1.422,2.075,4.531,1.146,6.998c-3.613,9.604-11.871,13.079-20.921,14.313
			c-8.199,1.118-15.776-0.664-20.153-9.153c-3.927-7.616-1.413-16.46,7.822-16.626c4.933-0.089,8.825-4.321,13.933-4.556
			c2.063-0.095,4.139-0.865,6.625,0.997c-1.521,2.22-3.245,3.982-4.057,6.096c-1.17,3.041-0.704,6.341,2.265,8.126
			C81.21,368.561,83.831,367.193,85.605,364.021z M179.326,331.889c-16.075-3.014-32.316-0.302-48.572-2.863
			c17.689,0,35.378,0,53.342,0C183.947,331.887,181.612,332.316,179.326,331.889z M225.023,322.802
			c-3.507,0.281-7.056,0.161-10.582,0.057c-1.635-0.049-3.835,1.014-4.273-2.095c-0.325-2.304-0.274-4.348,1.865-5.51
			c2.822-1.534,5.709-3.178,8.775-3.979c4.06-1.059,8.47-0.863,12.45-2.105c3.706-1.155,7.043-3.486,11.076-5.577
			C244.994,314.145,235.617,321.952,225.023,322.802z M234.838,219.514c-0.875,2.487-2.326,5.786-5.472,5.73
			c-2.646-0.046-4.038-2.761-5.107-5.249c-1.518-3.529-3.777-6.725-7.473-8.019c-2.765-0.967-3.022-3.103-4.031-5.279
			c8.634-0.719,15.218-3.695,18.892-12.285c2.141-5.007,6.779-8.102,13.529-6.275C241.752,198.646,238.485,209.147,234.838,219.514z
			 M300.531,263.463c2.682-0.962,3.217,1.092,3.742,2.802c1.801,5.842,4.25,11.39,8.271,17.982
			c-6.471-1.048-9.039,2.082-9.377,6.735c-0.447,6.174-3.984,7.532-9.07,6.64c-5.368-0.942-10.911-1.888-10.843-9.423
			C283.336,279.115,292.01,266.52,300.531,263.463z M271.68,225.433c-2.69,2.367-5.763,4.095-9.333,4.756
			c-4.626,0.857-6.21,0.273-4.467-5.345c3.542-11.41,6.423-23.088,7.094-35.128c0.163-2.922,1.416-5.266,4.112-5.696
			c3.403-0.542,5.788-1.089,7.781-4.685c1.664-2.999,3.973-0.162,4.845,2.042c2.043,5.164,1.648,10.651,1.753,17.992
			C285.194,209.157,280.113,218.013,271.68,225.433z M303.291,323.504c-12.381-0.729-21.039-7.84-26.754-20.657
			c12.422,7.333,18.68,7.559,34.657,1.849c0.367,2.677,0.412,5.392,1.137,7.911C315.912,325.047,318.398,324.395,303.291,323.504z
			 M368.139,323.799c-7.273-0.251-14.563-0.071-22.988-0.071c3.098-2.449,6.814-3.613,4.998-7.874
			c-1.631-3.829-4.58-4.329-8.076-3.794c-4.139,0.633-7.879-0.877-8.531-4.737c-0.613-3.615,2.68-5.887,6.297-6.985
			c5.869-1.781,10.652-4.729,14.678-9.85c4.148-5.275,10.166-0.486,15.203-0.089c4.375,0.345,1.189,4.453,1.215,6.852
			c0.076,7.262-0.42,14.552,1.398,21.693C373.275,322.644,371.992,323.934,368.139,323.799z M397.559,323.646
			c-5.834,1.434-6.932-1.519-5.93-7.333c1.076-6.246,1.658-12.639,1.727-18.976c0.049-4.692,3.064-5.624,6.283-5.965
			c4.643-0.492,2.447,3.603,2.832,5.545c1.189,5.994,1.658,12.13,2.742,18.149C406.766,323.671,406.893,323.647,397.559,323.646z
			 M473.533,317.861c-0.932-0.003-2.379-0.369-2.721,0.084c-7.078,9.428-17.25,3.688-24.779,5.4c-6.965,0-12.836,0.009-18.709-0.003
			c-3.229-0.007-5.941-1.75-4.729-4.813c3.422-8.64,2.373-17.465,2.254-26.288c-0.049-3.695-0.029-7.316,1.627-10.782
			c0.768-1.61,1.145-4.049,3.006-3.941c1.58,0.092,3.463,1.412,4.25,3.335c0.695,1.699,1.082,3.62,2.135,5.055
			c1.313,1.783,2.295,4.556,5.164,4.174c3.027-0.403,1.832-3.106,2.35-5.002c1.303-4.777,5.688-2.788,7.461-1.661
			c6.729,4.277,15.752,6.325,16.139,17.276c0.18,5.072,4.818,8.917,8.428,12.67C477.984,316.042,477.797,317.878,473.533,317.861z"
			/>
		<path fill="#4E6F2E" d="M358.496,426.92c13.975-4.908,20.271-17.012,16.959-31.409c-1.463-6.357-6.188-9.75-10.66-13.214
			c-3.678-2.85-3.559-4.497-0.287-7.354c7.572-6.616,7.424-18.046-0.176-24.597c-4.977-4.288-10.875-6.862-17.383-6.972
			c-12.465-0.207-24.941,0.063-37.41,0.26c-2.027,0.033-4.227,0.333-5.689,3.029c2.342,2.168,5.014,2.254,7.555,2.403
			c3.332,0.196,4.498,1.921,4.453,5.02c-0.309,20.72-0.605,41.438-0.848,62.158c-0.057,4.869-1.338,8.217-7.203,8.027
			c-1.855-0.06-5.004,0.338-4.793,3.002c0.256,3.234,3.461,2.393,5.639,2.405c11.537,0.063,23.076,0.088,34.613,0.001
			C348.479,429.641,353.574,428.648,358.496,426.92z M333.584,347.861c16.23-1.426,23.457,2.521,24.652,12.154
			c1.275,10.277-3.293,16.817-13.307,19.049c-1.49,0.332-2.846,0.625-4.082,0.87c-0.824,0.163-1.596,0.305-2.316,0.422
			c-1.441,0.233-2.682,0.367-3.748,0.377c-6.135,0.055-6.535-4.014-6.379-17.016c0.01-0.705-0.227-1.522,0.049-2.097
			C330.6,357.147,323.652,348.733,333.584,347.861z M328.125,410.874c-0.273-7.269,0.066-14.558-0.004-21.837
			c-0.033-3.246,1.17-4.828,4.572-4.481c4.197,0.427,8.453,0.465,12.604,1.148c12.785,2.11,19.059,9.419,18.207,20.844
			c-0.84,11.298-8.24,17.226-21.477,17.205C329.926,423.735,328.568,422.627,328.125,410.874z"/>
		<path fill="#4E6F2E" d="M262.501,419.817c6.767-9.985,7.24-20.761,2.262-31.56c-4.879-10.584-15.473-16.904-25.973-16.18
			c-11.089,0.766-20.484,8.448-24.195,19.775c-2.432,7.423-2.628,14.879,0.48,22.09c1.567,3.634,0.234,4.705-3.007,5.617
			c-5.453,1.536-8.18-0.107-8.138-5.934c0.065-9.183,0.378-18.379,0.003-27.544c-0.376-9.217-4.783-13.011-13.98-13.065
			c-7.77-0.049-14.139,3.268-19.562,8.498c-2.975,2.869-6.717,5.557-5.87,10.512c0.136,0.793,1.741,1.955,2.599,1.9
			c5.201-0.333,6.588-4.608,8.249-8.514c2.422-5.699,6.645-8.453,12.852-7.532c4.322,0.64,6.361,3.327,6.687,7.766
			c0.453,6.157-0.112,10.959-7.737,12.427c-6.022,1.159-11.363,4.442-16.001,8.614c-3.062,2.753-5.214,6.007-5.938,10.156
			c-1.333,7.642,3.678,13.594,11.377,13.395c5.436-0.141,10.092-2.528,14.106-5.819c2.458-2.015,3.623-1.526,5.806,0.276
			c7.861,6.496,15.931,4.258,20.2-6.117c5.208,7.093,10.952,12.043,19.376,12.79C247.018,432.34,256.207,429.106,262.501,419.817z
			 M188.5,421.679c-0.942,0.396-2.01,0.676-3.209,0.85c-6.911,1.002-10.829-3.35-9.117-10.126
			c1.358-5.374,9.575-11.974,15.11-12.363c2.149-0.151,3.049,0.583,3.042,2.646c-0.006,2.111-0.001,4.222-0.001,6.333
			c-0.007,6.156-1.336,9.918-4.403,11.912C189.484,421.216,189.011,421.464,188.5,421.679z M254.591,416.923
			c-3.17,6.114-7.644,10.979-15.274,10.715c-4.861-0.17-14.235-8.84-14.765-14.421c-0.413-4.352-3.75-8.196-1.958-12.403
			c-0.804-6.564,2.06-11.846,4.59-16.997c4.601-9.369,14.749-10.612,22.207-3.136C258.118,389.433,260.539,405.452,254.591,416.923z
			"/>
		<path fill="#4E6F2E" d="M159.38,414.778c3.702-14.474,0.102-23.397-11.735-31.176c-8.166-5.364-17.676-8.477-24.891-15.459
			c-4.241-4.105-4.031-8.824-2.614-13.566c0.966-3.232,2.409-7.106,7.332-5.627c0.035,0.042,0.058,0.08,0.098,0.123
			c0.01,0.003,0.02,0.005,0.029,0.007c-0.7,1.233-1.675,2.416-2.593,3.624c-0.551,0.725-1.081,1.458-1.518,2.217
			c-0.529,0.919-0.922,1.875-1.05,2.897c-0.062,0.491-0.062,0.997,0.014,1.521c0.05,0.349,0.134,0.707,0.255,1.073
			c0.424,1.283,1.31,2.678,2.838,4.225c2.377-10.307,10.294-10.802,19.106-10.433c-0.19-0.28-0.383-0.539-0.578-0.787
			c-2.85-3.637-6.244-4.024-9.611-4.003c-0.918,0.005-1.835,0.042-2.738,0.051c-0.602,0.006-1.198-0.001-1.785-0.036
			c-0.22-0.014-0.438-0.03-0.655-0.053c-0.044-0.005-0.088-0.008-0.132-0.013c-0.527-0.06-1.045-0.149-1.552-0.284
			c0.016-0.027,0.033-0.055,0.049-0.083c-0.031-0.01-0.059-0.017-0.088-0.023c-0.028-0.007-0.058-0.015-0.087-0.023
			c-0.154-0.186-0.255-0.358-0.314-0.522c-0.002-0.008-0.008-0.016-0.011-0.023c-0.172-0.511,0.094-0.914,0.619-1.219
			c0.1-0.058,0.209-0.112,0.327-0.163c8.547-3.7,18.881,0.829,22.061,9.626c0.826,2.285,0.391,5.313,3.535,6.344
			c5.308-11.431,1.207-19.968-10.489-21.841c-5.646-0.905-11.265-0.728-16.77,1.001c-16.484,5.177-21.755,23.919-10.314,36.909
			c4.259,4.837,9.658,8.197,15.315,11.191c5.196,2.75,10.536,5.314,14.976,9.269c4.808,4.282,6.773,9.697,5.009,15.925
			c-1.776,6.267-6.272,9.462-12.783,10.38c-12.799,1.805-22.002-4.325-24.928-16.977c-0.451-1.945-0.211-4.84-3.013-4.618
			c-2.294,0.183-1.885,2.927-2.137,4.682c-2.304,16.058,2.056,21.415,18.263,22.424c2.813,0.175,5.65,0.154,8.468,0.03
			C148.038,430.803,156.84,424.709,159.38,414.778z"/>
		<path fill="#4E6F2E" d="M417.809,374.549c-3.967-2.038-7.693-1.175-11.33,1.143c-2.123,1.354-3.479,3.849-7.205,4.486
			c0-2.391,0.119-4.27-0.031-6.128c-0.18-2.194-1.619-3.1-3.342-1.726c-3.66,2.918-7.689,5.701-10.377,9.404
			c-2.223,3.06,3.389,3.802,3.729,6.599c0.225,1.858,0.5,3.726,0.516,5.591c0.064,7.3-0.01,14.601,0.061,21.9
			c0.041,4.317,0.508,8.69-5.348,9.882c-1.344,0.272-2.609,1.445-1.76,3.167c0.744,1.512,2.322,1.373,3.707,1.256
			c7.484-0.631,14.943-1.792,22.494-0.764c1.553,0.211,3.389,0.563,4.154-1.613c-1.227-2.188-3.463-2.355-5.496-2.326
			c-6.273,0.089-7.936-3.402-7.777-8.962c0.166-5.88-0.133-11.771-0.148-17.658c-0.039-14.324,0.68-14.939,14.477-12.896
			c3.316,0.492,6.422-0.061,7.367-3.724C422.344,378.902,420.873,376.122,417.809,374.549z"/>
		<path fill="#4E6F2E" d="M404.539,187.144c-11.264,2.616-23.174,2.689-33.873,0.218c-16.18-3.736-29.688-0.907-41.74,9.387
			c-13.313,11.371-24.182,25.032-33.151,40.053c-3.13,5.243-7.031,10.3-8.364,17.074c4.813-2.33,7.5-5.552,9.873-9.724
			c9.02-15.872,20.531-29.86,33.982-42.208c10.959-10.064,24.563-14.251,38.57-11.645c14.404,2.681,28.176,1.068,42.445-0.12
			C410.561,185.975,407.742,186.399,404.539,187.144z"/>
		<path fill="#4E6F2E" d="M216.076,339.107c-9.879-0.18-18.388,3.088-29,5.95c5.479,2.305,9.312,3.497,12.85-0.137
			c1.506-1.547,3.292-2.18,5.072-1.835c7.92,1.528,15.884,0.566,23.776,0.348c29.483-0.815,59.172,3.16,89.566-4.092
			C283.475,339.342,249.767,339.72,216.076,339.107z"/>
		<path fill="#4E6F2E" d="M467.602,339.668c-10.814-0.163-21.975-1.646-32.34,0.546c-8.16,1.727-15.314,2.385-23.111-0.2
			c-4.463-1.479-11.066-2.633-13.559-0.029c-5.691,5.945-13.086,6.655-21.262,9.882c7.6,3.747,13.566,1.9,18.549-1.641
			c7.947-5.647,16.188-5.379,24.934-3.32c3.877,0.913,7.881,2.444,11.805,0.996c7.764-2.864,15.773-2.299,23.762-2.346
			c4.814-0.028,9.631-0.005,14.896-0.005C470.557,340.87,468.805,339.688,467.602,339.668z"/>
		<path fill="#4E6F2E" d="M515.688,383.696c-0.828,0.228-1.293,1.241-1.887,1.98c-0.125,0.155-0.258,0.293-0.396,0.415
			c-0.027,0.022-0.053,0.05-0.08,0.071c-0.061,0.047-0.125,0.083-0.189,0.121c-0.027,0.017-0.053,0.038-0.082,0.053
			c-0.072,0.037-0.152,0.063-0.232,0.087c-0.023,0.006-0.043,0.019-0.066,0.024c-0.076,0.018-0.158,0.021-0.24,0.025
			c-0.033,0.002-0.063,0.011-0.096,0.01c-0.078-0.001-0.164-0.02-0.248-0.034c-0.043-0.007-0.084-0.006-0.129-0.018
			c-0.064-0.017-0.139-0.05-0.209-0.074c-0.07-0.025-0.139-0.043-0.215-0.078c-0.049-0.022-0.107-0.061-0.158-0.088
			c-0.104-0.054-0.203-0.104-0.314-0.176c-0.039-0.066-0.064-0.129-0.107-0.197c-0.001,0.001-0.001,0.002-0.002,0.002
			c-0.001,0.001-0.002,0.002-0.002,0.003l-0.002,0.001l0.002-0.003l-0.084,0.073c4.615-9.779,4.615-9.756-6.779-9.816
			c-6.836-0.037-13.674-0.074-20.504-0.306c-1.676-0.057-4.002,0.704-4.793-1.772c-0.428-1.343,0.98-3.715-1.777-3.642
			c-1.992,0.055-2.213,2.304-2.777,3.657c-1.244,2.987-2.211,6.127-2.936,9.285c-0.486,2.123,1.098,3.688,2.707,2.021
			c6.129-6.348,13.883-4.603,21.246-4.868c1.566-0.057,3.557-0.676,4.582,0.981c1.252,2.019-0.52,3.533-1.57,4.953
			c-7.428,10.038-14.855,20.076-22.449,29.989c-2.859,3.732-7.414,4.016-11.396,3.327c-4.547-0.785-3.092-5.184-3.146-8.242
			c-0.148-8.246,0.23-16.505-0.072-24.742c-0.363-9.842-5.049-14.064-14.908-13.656c-10.514,0.434-18.057,6.12-23.836,14.448
			c-1.213,1.746-2.023,3.936,0.195,5.675c2.137,1.677,3.998,0.453,5.727-0.876c2.795-2.147,3.221-5.668,4.85-8.491
			c2.947-5.104,7.459-7.202,13.148-5.763c5.178,1.309,5.178,5.47,5.582,10.024c0.539,6.071-2.029,8.116-7.322,9.791
			c-8.58,2.713-16.865,6.465-21.141,15.286c-2.209,4.561-2.131,9.126,1.252,13.262c3.262,3.989,7.561,4.451,12.195,3.41
			c3.969-0.89,7.414-2.915,10.717-5.244c1.205-0.85,2.906-3.227,4.074-1.38c5.965,9.432,15.811,3.881,23.475,5.542
			c11.203,2.43,23.395,0.25,35.168,0.125c2.412-0.026,4.367-0.535,4.467-3.274c0.137-3.694,1.293-7.506-0.299-11.047
			c-0.451-1-2.486-0.563-2.955,0.583c-4.627,11.316-14.902,7.351-23.191,8.588c-3.234,0.482-4.652-0.992-2.414-4.01
			c1.039-1.4,2.057-2.816,3.064-4.241c0.004-0.006,0.008-0.013,0.014-0.02c1-1.416,1.988-2.841,2.971-4.271
			c0.016-0.021,0.031-0.044,0.045-0.065c0.918-1.334,1.83-2.672,2.744-4.009c5.008-7.322,10.049-14.619,16.055-21.203
			c0.002-0.001,0.002-0.001,0.002-0.002c0.031,0.021,0.059,0.038,0.088,0.055c0.031,0.019,0.061,0.038,0.092,0.058
			c0.465,0.808,0.619,1.518,0.574,2.159c-0.002,0.034,0.002,0.07-0.002,0.104c-0.006,0.049-0.02,0.096-0.027,0.144
			c-0.295,1.924-2.395,3.224-3.363,4.675c-6.15,9.217-12.729,18.149-19.326,27.424c8.162,1.434,10.406-4.6,13.5-9.058
			c5.752-8.29,12.246-16.089,16.979-25.069c0.785-1.494,1.539-3.196-0.078-4.496C517.178,380.114,517.059,383.319,515.688,383.696z
			 M444.795,421.905c-0.42,0.148-0.865,0.283-1.334,0.402c-2.971,0.756-6.166,0.899-8.498-1.745c-2.449-2.775-2.414-6.146-1.09-9.26
			c2.695-6.347,8.145-9.516,14.512-11.061c0.736-0.178,1.303-0.295,1.742-0.264c0.146,0.01,0.277,0.037,0.396,0.083
			c0.033,0.014,0.061,0.037,0.092,0.054c0.059,0.029,0.119,0.056,0.17,0.097c0.795,0.639,0.842,2.696,0.873,7.813
			c0.352,5.772-0.449,10.958-5.744,13.425C445.561,421.613,445.188,421.766,444.795,421.905z"/>
		<path fill="#4E6F2E" d="M187.754,349.827c-2.021-0.628-4.079-1.199-6.16-1.563c-8.038-1.407-13.329,3.448-13.528,12.317
			c8.76-6.014,8.76-6.014,20.322-2.784c0.681,0.19,1.359,0.396,2.048,0.551c8.646,1.937,14.043-2.251,14.468-12.706
			C200.604,354.758,194.1,351.804,187.754,349.827z"/>
		<path fill="#4E6F2E" d="M107.625,373.188c-10.702,16.301-25.807,23.91-44.779,24.519c1.22,3.177,3.901,2.591,6.086,2.639
			c16.177,0.363,29.175-5.489,38.653-19.084C109.855,378.005,110.48,376.055,107.625,373.188z"/>
		<path fill="#4E6F2E" d="M125.646,210.917c1.381-0.43,3.983,0.128,2.83-2.512c-0.753-1.723-2.961-4.705-4.545-3.08
			c-6.075,6.235-15.389,3.458-21.971,9.131c-6.342,5.465-15.416,4.485-23.612,5.969c8.681,2.755,17.551,3.324,25.745-1.434
			C110.9,215.039,118.315,213.203,125.646,210.917z"/>
		<path fill="#4E6F2E" d="M423.871,195.472c10.395,7.901,19.625,2.189,28.52-1.409c8.51-3.442,11.424-9.822,10.322-20.101
			C455.959,193.275,440.152,193.922,423.871,195.472z"/>
		<path fill="#4E6F2E" d="M378.977,412.593c-0.752-0.168-1.604,0.342-2.084,1.428c-6.885,15.577-20.838,17.894-35.527,18.869
			c-3.283,0.219-6.818-0.977-9.814,1.975c13.344,2.049,26.557,1.919,38.498-5.479c5.084-3.149,8.586-7.96,10.021-13.961
			C380.328,414.346,380.408,412.912,378.977,412.593z"/>
		<path fill="#4E6F2E" d="M480.355,346.062c7.607-0.99,15.047-3.278,22.863-2.651c1.373,0.11,2.057-0.932,1.924-2.313
			c-0.193-2.071-1.848-1.597-3.146-1.755c-9.469-1.149-18.457,1.016-29.271,4.604C476.414,345.027,478.484,346.305,480.355,346.062z
			"/>
		<path fill="#4E6F2E" d="M269.591,411.609c-2.049,8.479-7.48,14.357-14.406,19.139c-1.184,0.816-3.861,0.803-2.701,3.067
			c0.832,1.626,2.925,0.959,4.504,0.436c8.407-2.787,18.251-17.626,14.958-26.674C270.152,408.332,269.954,410.11,269.591,411.609z"
			/>
		<path fill="#4E6F2E" d="M182.259,359.322c-1.498-0.557-3.178-0.868-4.771-0.857c-1.723,0.013-3.291,0.771-3.081,2.951
			c0.183,1.899,1.856,2.318,3.12,1.912c5.546-1.781,10.598,0.539,15.87,1.396c5.718,0.932,11.142,0.405,13.083-7.113
			C198.568,363.674,190.495,362.384,182.259,359.322z"/>
		<path fill="#4E6F2E" d="M477.016,435.574c12.311,0.666,24.619,0.243,36.928-0.347c0.02-0.756,0.041-1.513,0.063-2.269H476.99
			C477,433.831,477.008,434.702,477.016,435.574z"/>
		<path fill="#4E6F2E" d="M91.524,339.624c2.721,4.139,18.07,5.884,24.775,3.427C108.681,339.771,100.525,338.26,91.524,339.624z"/>
		<path fill="#4E6F2E" d="M192.074,428.092c-5.579,2.153-10.791,5.291-18.848,6.174c9.177,4.951,14.858,0.842,20.689-2.457
			c1.174-0.664,3.929-0.157,2.304-2.864C195.277,427.378,193.975,427.358,192.074,428.092z"/>
		<path fill="#4E6F2E" d="M179.334,342.642c1.029,0.118,1.688-0.807,1.483-1.876c-0.294-1.531-1.656-1.386-2.744-1.391
			c-8.644-0.033-17.289-0.02-27.312-0.02C160.58,346.204,170.24,341.605,179.334,342.642z"/>
		<path fill="#4E6F2E" d="M466.533,390.532c-2.646,8.625-2.18,17.222,0,25.813V390.532z"/>
		<path fill="#4E6F2E" d="M434.703,434.978c7.934,3.998,13.152-2.384,20.604-4.778C445.688,423.344,442.297,437.801,434.703,434.978
			z"/>
		<path fill="#4E6F2E" d="M153.519,203.816c-1.352-1.521-3.999-3.158-6.005-0.461c-2.588,3.477-6.618,4.737-11.359,7.55
			c6.914,2.561,11.174,0.12,15.087-3.169C152.39,206.771,155.544,206.097,153.519,203.816z"/>
		<path fill="#4E6F2E" d="M459.938,162.807c6.904-11.949,6.904-11.949,4.861-19.503
			C458.293,160.545,458.293,160.545,459.938,162.807z"/>
		<path fill="#4E6F2E" d="M144.37,434.548c10.804,0.6,19.567-7.188,16.104-13.647C156.745,427.396,150.434,430.76,144.37,434.548z"
			/>
		<path fill="#4E6F2E" d="M216.632,426.204c-3.653,2.225-7.416,4.268-12.199,6.992c6.51,2.641,10.6,0.037,14.721-2.595
			c1.435-0.916,1.905-1.99,0.906-3.393C219.236,426.053,218.322,425.175,216.632,426.204z"/>
		<path fill="#4E6F2E" d="M481.445,390.235c4.445-1.559,8.836-3.27,13.248-4.924c-5.211-1.423-10.26-3.366-14.902,0.36
			c-1.086,0.872-2.25,1.957-1.434,3.524C478.961,390.355,480.328,390.628,481.445,390.235z"/>
		<path fill="#4E6F2E" d="M369.545,381.14c1.375,0.658,2.031-0.638,2.609-1.612c2.795-4.704,4.211-9.643,2.135-16.697
			c-2.574,5.833-2.172,10.978-5.336,14.833C368.012,378.811,367.967,380.386,369.545,381.14z"/>
		<path fill="#4E6F2E" d="M365.039,342.428c0.393-2.235-1.479-3.104-3.66-3.091c-5.748,0.034-11.494,0.012-17.242,0.012
			c5.85,0.586,11.291,2.604,16.838,4.192C362.469,343.969,364.684,344.463,365.039,342.428z"/>
		<path fill="#4E6F2E" d="M391.213,434.448c5.832,2.479,11.643,1.419,17.467-0.299C402.84,432.896,396.961,431.848,391.213,434.448z
			"/>
		<path fill="#4E6F2E" d="M431.057,397.94c4.883-1.335,6.018-5.685,7.891-9.376c0.57-1.128,0.445-2.503-0.779-3.037
			c-1.549-0.676-2.641,0.23-3.113,1.772c-0.906,2.956-2.061,5.709-4.936,7.361c-0.863,0.496-1.289,1.464-0.793,2.342
			C429.604,397.495,430.479,397.647,431.057,397.94z"/>
		<path fill="#4E6F2E" d="M112.628,309.268c1.685,0.998,2.645,0.123,3.425-1.162c1.97-3.244,3.518-6.617,2.706-11.126
			c-2.454,2.985-4.659,5.651-6.843,8.334C110.634,306.89,110.78,308.175,112.628,309.268z"/>
		<path fill="#4E6F2E" d="M182.097,384.363c-1.437-0.727-2.548,0.381-3.301,1.693c-2.037,3.549-4.101,7.082-6.741,11.631
			c7.125-0.849,7.477-6.499,10.267-9.786C183.298,386.752,183.678,385.162,182.097,384.363z"/>
		<path fill="#4E6F2E" d="M406.574,386.896c-1.723-0.58-2.619,0.542-2.889,2.045c-0.549,3.043-2.156,6.14,0.248,9.525
			c1.828-2.253,3.473-4.343,5.191-6.37c0.852-1.003,2.57-1.647,1.752-3.335C410.049,387.057,408.057,387.396,406.574,386.896z"/>
		<path fill="#4E6F2E" d="M119.863,269.109c-1.035-0.339-4.721-0.031-4.701,2.915c0.026,3.8-1.655,7.686,0.472,12.084
			c2.263-3.567,1.528-7.763,4.125-10.629C120.946,272.171,122.618,270.013,119.863,269.109z"/>
		<path fill="#4E6F2E" d="M47.478,180.351c4.946,4.342,9.56,3.319,15.131,5.312C58.532,178.698,53.437,181.564,47.478,180.351z"/>
		<path fill="#4E6F2E" d="M557.1,353.975c6.166,3.506,6.652,3.46,10.258-1.292C564.059,353.539,560.775,353.743,557.1,353.975z"/>
		<path fill="#4E6F2E" d="M465.203,431.948c-0.385,0.229-0.609,1.638-0.445,1.737c2.371,1.438,4.891,1.165,8.412,0.224
			C470.094,432.533,468.242,430.136,465.203,431.948z"/>
		<path fill="#4E6F2E" d="M312.582,434.108c2.158,2.458,4.021,2.37,5.951,1.096c0.176-0.116,0.133-0.992-0.1-1.229
			C316.699,432.201,314.883,432.574,312.582,434.108z"/>
		<path fill="#4E6F2E" d="M323.328,435.297c0.006,0.029,0.021,0.058,0.045,0.084s0.055,0.052,0.094,0.076
			c0.225,0.142,0.672,0.243,0.965,0.383c0.363-0.229,0.729-0.457,1.094-0.686c-0.346-0.253-0.66-0.634-1.043-0.727
			C323.842,434.274,323.166,434.436,323.328,435.297z"/>
		<path fill="#4E6F2E" d="M46.679,180.258c-0.127-0.134-0.242-0.356-0.385-0.376c-0.143-0.021-0.314,0.163-0.474,0.257
			c0.127,0.134,0.242,0.356,0.385,0.377C46.349,180.536,46.52,180.354,46.679,180.258z"/>
		<path fill="#4E6F2E" d="M328.76,433.316c-0.01,0.153,0.209,0.32,0.326,0.481c0.143-0.14,0.387-0.27,0.4-0.421
			c0.012-0.15-0.207-0.318-0.344-0.504C329.004,433.022,328.768,433.163,328.76,433.316z"/>
		<path fill="#4E6F2E" d="M426.775,319.938c0.84,0.073,1.682,0.147,2.521,0.221c0.863-12.576,5.578-24.813,0.736-37.891
			C428.947,294.825,427.861,307.382,426.775,319.938z"/>
		<path fill="#4E6F2E" d="M449.688,286.632c-1.27-1.849-3.605-1.579-3.334,1.392c0.199,2.175-3.107,3.788-1.191,5.571
			c1.939,1.808,3.73-0.664,5.564-1.432c1.42-0.595,2.951-0.93,4.373-1.362C454.305,287.971,451.145,288.756,449.688,286.632z"/>
		<path fill="#4E6F2E" d="M358.4,292c-6.283,6.063-13.742,10.062-21.223,14.411c13.139,3.542,18.762-11.281,31.365-10.807
			C364.975,292.043,360.098,290.363,358.4,292z"/>
		<path fill="#4E6F2E" d="M66.982,356.27c-2.13,0.963-4.227,2.137-6.469,2.689c-7.566,1.868-9.144,6.545-3.448,13.872
			c-0.736-12.342,14.903-7.407,16.242-17.58C70.77,354.324,68.909,355.397,66.982,356.27z"/>
		<path fill="#4E6F2E" d="M278.374,184.043c-3.566,1.726-9.172,1.168-10.133,7.713c-1.715,11.685-4.582,23.201-7.061,35.247
			c4.785-0.799,5.023-4.304,6.035-7.379c3.384-10.282,0.734-22.93,12.05-30.227C280.5,188.602,280.268,183.127,278.374,184.043z"/>
		<path fill="#4E6F2E" d="M301.121,272.676c1.498-0.825,1.137-2.329,0.715-3.758c-0.547-1.843-1.502-1.056-2.611-0.646
			c-6.512,2.403-12.112,11.171-11.628,20.629C291.875,281.577,295.182,275.947,301.121,272.676z"/>
		<path fill="#4E6F2E" d="M218.45,208.81c3.203,2.326,4.542,5.92,7.9,3.688c6.64-4.414,12.39-9.6,12.904-19.275
			C232.047,198.662,228.246,206.991,218.45,208.81z"/>
		<path fill="#4E6F2E" d="M397.281,307.571c3.258-5.936,3.293-6.576,0.684-12.312C395.752,301.212,395.641,303.227,397.281,307.571z
			"/>
		<path fill="#4E6F2E" d="M305.297,310.385c-6.359,1.639-12.895,1.563-20.272,0.414c6.251,8.425,13.758,6.152,21.108,5.247
			c2.41-0.297,3.24-0.686,2.68-3.316C308.326,310.435,307.945,309.702,305.297,310.385z"/>
		<path fill="#4E6F2E" d="M213.559,320.107c9.939-1.227,19.078-0.279,25.086-9.023C231.433,315.954,220.678,310.569,213.559,320.107
			z"/>
		<path fill="#4E6F2E" d="M343.104,350.838c-5.18,0.181-9.275-2.029-10.988,0.985c-1.547,2.725-1.309,6.926,1.521,12.443
			C334.266,357.391,338.311,355.117,343.104,350.838z"/>
		<path fill="#4E6F2E" d="M332.436,377.014c1.414-3.644,1.635-6.43-0.053-9.764C331.008,370.61,331.018,373.395,332.436,377.014z"/>
		<path fill="#4E6F2E" d="M234.453,381.655c-1.361-0.46-2.495,0.283-3.418,1.652c-3.728,5.529-4.964,11.506-2.996,18.28
			c2.21-5.762,3.713-11.754,7.066-16.965C235.786,383.563,235.745,382.092,234.453,381.655z"/>
		<path fill="#4E6F2E" d="M441.701,408.136c-3.543,0.862-5.371,3.241-5.344,6.924c0.012,1.32-0.281,2.867,2.424,3.446
			c1.447-2.711,3.125-5.61,4.518-8.642C443.645,409.111,442.709,407.89,441.701,408.136z"/>
	</g>
</g>
</svg>
